<svg width="39" height="44" viewBox="0 0 39 44" fill="none" xmlns="http://www.w3.org/2000/svg">
<path d="M32.1436 23.1646C32.1221 19.8133 33.7817 17.2875 37.1333 15.4251C35.2588 12.9681 32.4229 11.6168 28.6846 11.3563C25.145 11.1008 21.2725 13.2433 19.8545 13.2433C18.356 13.2433 14.9292 11.4448 12.2329 11.4448C6.66846 11.5234 0.754883 15.5037 0.754883 23.602C0.754883 25.9951 1.23291 28.4668 2.18896 31.0123C3.46728 34.3636 8.07568 42.5748 12.8828 42.4422C15.3965 42.3881 17.1743 40.8107 20.4453 40.8107C23.6196 40.8107 25.2632 42.4422 28.0669 42.4422C32.917 42.3783 37.085 34.914 38.2988 31.5528C31.7944 28.7469 32.1436 23.3366 32.1436 23.1646ZM26.4985 8.17699C29.2217 5.21878 28.9746 2.52592 28.894 1.55786C26.4878 1.68562 23.7056 3.05663 22.1211 4.74212C20.3755 6.55046 19.3496 8.78632 19.5698 11.3072C22.1694 11.489 24.5435 10.2654 26.4985 8.17699Z" fill="#03070A"/>
</svg>
