<svg width="29" height="25" viewBox="0 0 29 25" fill="none" xmlns="http://www.w3.org/2000/svg">
<g clip-path="url(#clip0_33_1182)">
<path d="M10.9453 10.1074H27.3516C27.502 10.1074 27.625 9.98438 27.625 9.83398V7.91992C27.625 7.76953 27.502 7.64648 27.3516 7.64648H10.9453C10.7949 7.64648 10.6719 7.76953 10.6719 7.91992V9.83398C10.6719 9.98438 10.7949 10.1074 10.9453 10.1074ZM10.6719 17.0801C10.6719 17.2305 10.7949 17.3535 10.9453 17.3535H27.3516C27.502 17.3535 27.625 17.2305 27.625 17.0801V15.166C27.625 15.0156 27.502 14.8926 27.3516 14.8926H10.9453C10.7949 14.8926 10.6719 15.0156 10.6719 15.166V17.0801ZM27.8984 0.46875H1.10156C0.951172 0.46875 0.828125 0.591797 0.828125 0.742188V2.65625C0.828125 2.80664 0.951172 2.92969 1.10156 2.92969H27.8984C28.0488 2.92969 28.1719 2.80664 28.1719 2.65625V0.742188C28.1719 0.591797 28.0488 0.46875 27.8984 0.46875ZM27.8984 22.0703H1.10156C0.951172 22.0703 0.828125 22.1934 0.828125 22.3438V24.2578C0.828125 24.4082 0.951172 24.5312 1.10156 24.5312H27.8984C28.0488 24.5312 28.1719 24.4082 28.1719 24.2578V22.3438C28.1719 22.1934 28.0488 22.0703 27.8984 22.0703ZM1.86719 16.9468L7.20947 12.7393C7.24544 12.711 7.27452 12.6749 7.29452 12.6338C7.31451 12.5926 7.3249 12.5475 7.3249 12.5017C7.3249 12.456 7.31451 12.4108 7.29452 12.3697C7.27452 12.3285 7.24544 12.2924 7.20947 12.2642L1.86719 8.05322C1.66895 7.896 1.375 8.03613 1.375 8.28906V16.7075C1.37498 16.7646 1.39103 16.8205 1.4213 16.8689C1.45158 16.9173 1.49486 16.9562 1.54621 16.9812C1.59755 17.0062 1.65488 17.0162 1.71164 17.0101C1.7684 17.004 1.82231 16.9821 1.86719 16.9468V16.9468Z" fill="#F3F3F3"/>
</g>
<defs>
<clipPath id="clip0_33_1182">
<rect width="29" height="25" fill="#00286B"/>
</clipPath>
</defs>
</svg>
