<svg width="24" height="24" viewBox="0 0 24 24" fill="none" xmlns="http://www.w3.org/2000/svg">
<g clip-path="url(#clip0_116_11591)">
<path d="M12.0003 8.25115C9.93595 8.25115 8.25127 9.93584 8.25127 12.0002C8.25127 14.0646 9.93595 15.7493 12.0003 15.7493C14.0647 15.7493 15.7494 14.0646 15.7494 12.0002C15.7494 9.93584 14.0647 8.25115 12.0003 8.25115ZM23.2447 12.0002C23.2447 10.4477 23.2588 8.90927 23.1716 7.35959C23.0844 5.55959 22.6738 3.96209 21.3575 2.64584C20.0385 1.32677 18.4438 0.918962 16.6438 0.831774C15.0913 0.744587 13.5528 0.758649 12.0031 0.758649C10.4506 0.758649 8.9122 0.744587 7.36252 0.831774C5.56252 0.918962 3.96502 1.32959 2.64877 2.64584C1.3297 3.9649 0.921891 5.55959 0.834704 7.35959C0.747516 8.91209 0.761579 10.4505 0.761579 12.0002C0.761579 13.5499 0.747516 15.0911 0.834704 16.6408C0.921891 18.4408 1.33252 20.0383 2.64877 21.3546C3.96783 22.6736 5.56252 23.0815 7.36252 23.1686C8.91502 23.2558 10.4535 23.2418 12.0031 23.2418C13.5556 23.2418 15.0941 23.2558 16.6438 23.1686C18.4438 23.0815 20.0413 22.6708 21.3575 21.3546C22.6766 20.0355 23.0844 18.4408 23.1716 16.6408C23.2616 15.0911 23.2447 13.5527 23.2447 12.0002ZM12.0003 17.7686C8.80814 17.7686 6.23189 15.1924 6.23189 12.0002C6.23189 8.80802 8.80814 6.23177 12.0003 6.23177C15.1925 6.23177 17.7688 8.80802 17.7688 12.0002C17.7688 15.1924 15.1925 17.7686 12.0003 17.7686ZM18.005 7.34271C17.2597 7.34271 16.6578 6.74084 16.6578 5.99552C16.6578 5.25021 17.2597 4.64834 18.005 4.64834C18.7503 4.64834 19.3522 5.25021 19.3522 5.99552C19.3524 6.1725 19.3177 6.34778 19.2501 6.51133C19.1825 6.67488 19.0833 6.82348 18.9581 6.94863C18.833 7.07377 18.6844 7.17299 18.5208 7.24062C18.3573 7.30824 18.182 7.34293 18.005 7.34271Z" fill="white"/>
</g>
<defs>
<clipPath id="clip0_116_11591">
<rect width="24" height="24" fill="white"/>
</clipPath>
</defs>
</svg>
