<svg width="26" height="26" viewBox="0 0 26 26" fill="none" xmlns="http://www.w3.org/2000/svg">
<path d="M13 15C15.7575 15 18 12.7575 18 10C18 7.2425 15.7575 5 13 5C10.2425 5 8 7.2425 8 10C8 12.7575 10.2425 15 13 15ZM13 7.5C14.3787 7.5 15.5 8.62125 15.5 10C15.5 11.3787 14.3787 12.5 13 12.5C11.6212 12.5 10.5 11.3787 10.5 10C10.5 8.62125 11.6212 7.5 13 7.5Z" fill="#177BC8"/>
<path d="M12.2025 25.7584C12.4352 25.9155 12.714 26 13 26C13.286 26 13.5648 25.9155 13.7975 25.7584C14.2155 25.4789 24.0398 18.7722 23.9999 10.4001C23.9999 4.66574 19.0651 0 13 0C6.93494 0 2.00012 4.66574 2.00012 10.3936C1.96025 18.7722 11.7845 25.4789 12.2025 25.7584ZM13 2.60002C17.5498 2.60002 21.2499 6.09835 21.2499 10.4066C21.2788 16.176 15.2165 21.3566 13 23.0557C10.7849 21.3553 4.72122 16.1734 4.75009 10.4001C4.75009 6.09835 8.45018 2.60002 13 2.60002Z" fill="#177BC8"/>
</svg>
