<svg width="28" height="24" viewBox="0 0 28 24" fill="none" xmlns="http://www.w3.org/2000/svg">
<path d="M14 1.25C13.2531 1.24976 12.5313 1.51974 11.9679 2.01009C11.4045 2.50043 11.0375 3.17805 10.9347 3.91784C10.8319 4.65763 11.0002 5.40964 11.4085 6.03505C11.8168 6.66046 12.4376 7.11704 13.1562 7.3205V11.6562C13.1562 11.88 13.2451 12.0946 13.4034 12.2529C13.5616 12.4111 13.7762 12.5 14 12.5C14.2238 12.5 14.4384 12.4111 14.5966 12.2529C14.7549 12.0946 14.8438 11.88 14.8438 11.6562V7.3205C15.5608 7.11548 16.1797 6.65842 16.5866 6.03341C16.9935 5.40841 17.161 4.65749 17.0584 3.9188C16.9557 3.18011 16.5897 2.50334 16.0278 2.01299C15.4659 1.52265 14.7458 1.2517 14 1.25ZM12.5938 4.34375C12.5938 3.97079 12.7419 3.6131 13.0056 3.34938C13.2694 3.08566 13.627 2.9375 14 2.9375C14.373 2.9375 14.7306 3.08566 14.9944 3.34938C15.2581 3.6131 15.4062 3.97079 15.4062 4.34375C15.4062 4.71671 15.2581 5.0744 14.9944 5.33812C14.7306 5.60184 14.373 5.75 14 5.75C13.627 5.75 13.2694 5.60184 13.0056 5.33812C12.7419 5.0744 12.5938 4.71671 12.5938 4.34375ZM3.875 6.3125C3.875 5.56658 4.17132 4.85121 4.69876 4.32376C5.22621 3.79632 5.94158 3.5 6.6875 3.5C7.43342 3.5 8.14879 3.79632 8.67624 4.32376C9.20368 4.85121 9.5 5.56658 9.5 6.3125V10.25H12.0312V11.9375H7.8125V6.3125C7.8125 6.01413 7.69397 5.72798 7.483 5.51701C7.27202 5.30603 6.98587 5.1875 6.6875 5.1875C6.38913 5.1875 6.10298 5.30603 5.892 5.51701C5.68103 5.72798 5.5625 6.01413 5.5625 6.3125V19.8125C5.5625 20.1109 5.68103 20.397 5.892 20.608C6.10298 20.819 6.38913 20.9375 6.6875 20.9375C6.98587 20.9375 7.27202 20.819 7.483 20.608C7.69397 20.397 7.8125 20.1109 7.8125 19.8125V14.1875H12.875V19.8125C12.875 20.1109 12.9935 20.397 13.2045 20.608C13.4155 20.819 13.7016 20.9375 14 20.9375C14.2984 20.9375 14.5845 20.819 14.7955 20.608C15.0065 20.397 15.125 20.1109 15.125 19.8125V14.1875H21.875C22.0242 14.1875 22.1673 14.1282 22.2727 14.0227C22.3782 13.9173 22.4375 13.7742 22.4375 13.625V6.3125C22.4375 6.01413 22.319 5.72798 22.108 5.51701C21.897 5.30603 21.6109 5.1875 21.3125 5.1875C21.0141 5.1875 20.728 5.30603 20.517 5.51701C20.306 5.72798 20.1875 6.01413 20.1875 6.3125V11.9375H15.9688V10.25H18.5V6.3125C18.5 5.56658 18.7963 4.85121 19.3238 4.32376C19.8512 3.79632 20.5666 3.5 21.3125 3.5C22.0584 3.5 22.7738 3.79632 23.3012 4.32376C23.8287 4.85121 24.125 5.56658 24.125 6.3125V13.625C24.125 14.2217 23.8879 14.794 23.466 15.216C23.044 15.6379 22.4717 15.875 21.875 15.875H16.8125V19.8125C16.8125 20.5584 16.5162 21.2738 15.9887 21.8012C15.4613 22.3287 14.7459 22.625 14 22.625C13.2541 22.625 12.5387 22.3287 12.0113 21.8012C11.4838 21.2738 11.1875 20.5584 11.1875 19.8125V15.875H9.5V19.8125C9.5 20.5584 9.20368 21.2738 8.67624 21.8012C8.14879 22.3287 7.43342 22.625 6.6875 22.625C5.94158 22.625 5.22621 22.3287 4.69876 21.8012C4.17132 21.2738 3.875 20.5584 3.875 19.8125V6.3125Z" fill="#6179A2"/>
</svg>
