<svg width="199" height="62" viewBox="0 0 199 62" fill="none" xmlns="http://www.w3.org/2000/svg">
<path fill-rule="evenodd" clip-rule="evenodd" d="M70.5819 7.94473C56.314 15.4015 54.8806 15.9453 46.2339 17.192C30.3287 19.4837 10.5379 23.9062 8.10767 25.7114C6.8425 26.651 4.44353 30.0886 2.77592 33.3514C0.14358 38.5026 -0.210155 40.0008 0.0884531 44.7387C0.476184 50.9063 2.65188 53.6178 7.21185 53.6178C12.0934 53.6178 12.698 52.915 12.698 47.2357C12.698 40.158 16.8454 32.9685 22.7192 29.8639C30.1798 25.9195 40.6844 27.3252 45.8995 32.9648C50.3951 37.8266 51.7145 41.4962 51.5822 48.7709L51.4609 55.485L96.1647 55.2446L140.87 55.0051L141.085 48.1078C141.264 42.4016 141.744 40.4882 143.866 37.034C147.627 30.9108 153.714 27.4112 160.494 27.476C171.925 27.5842 179.239 34.7867 180.529 47.2042C180.852 50.3144 181.586 53.0407 182.16 53.2627C184.016 53.9794 195.797 51.9041 197.054 50.639C199.035 48.6451 199.72 40.9284 198.085 39.0353C197.216 38.03 196.492 34.5499 196.139 29.6918C195.831 25.434 195.123 21.399 194.568 20.7257C192.22 17.8782 175.489 14.6848 155.453 13.2606L147.066 12.665L145.795 15.3387L144.524 18.0123L131.705 18.656C118.228 19.332 116.862 19.0426 116.347 15.4015C115.92 12.3783 113.49 12.9794 112.531 16.3467C111.476 20.0488 111.054 20.1329 91.7141 20.4991C77.143 20.7757 76.554 20.7156 76.5522 18.963C76.5494 16.9534 73.1306 14.8106 69.8928 14.7893C68.7562 14.7819 67.8264 14.4638 67.8283 14.0818C67.831 13.4382 79.1331 6.70825 85.9717 3.2781C89.2122 1.65319 89.9216 -0.0346036 87.3499 0.000539525C86.4651 0.0125622 78.9199 3.58791 70.5819 7.94473ZM24.9997 34.1088C18.1326 38.3232 15.5738 46.6031 19.0312 53.4236C23.0877 61.4279 32.6404 64.4336 39.4146 59.8382C49.3734 53.0833 49.2108 39.5088 39.1059 33.9654C35.2001 31.8226 28.6151 31.8892 24.9997 34.1088ZM152.604 34.8227C140.539 42.6976 146.229 61.9412 160.624 61.9412C168.436 61.9412 174.452 56.0899 175.084 47.8756C175.402 43.7297 175.078 42.3979 172.957 39.1574C168.329 32.0825 159.639 30.231 152.604 34.8227Z" fill="url(#paint0_linear_116_1653)"/>
<defs>
<linearGradient id="paint0_linear_116_1653" x1="219.887" y1="62.0274" x2="-12.5507" y2="-24.4531" gradientUnits="userSpaceOnUse">
<stop stop-color="#5DB4FB"/>
<stop offset="1" stop-color="#003082"/>
</linearGradient>
</defs>
</svg>
