<svg width="198" height="64" viewBox="0 0 198 64" fill="none" xmlns="http://www.w3.org/2000/svg">
<path fill-rule="evenodd" clip-rule="evenodd" d="M96.2077 1.31606C88.2009 2.83719 83.3822 4.72115 67.6581 12.4819C55.9483 18.2607 54.4036 18.7741 44.1682 20.2862C29.452 22.4595 11.8846 26.1648 8.75403 27.7549C6.99108 28.6501 5.198 31.1609 2.93018 35.9066C0.0168827 42.0047 -0.28805 43.3218 0.17574 47.7854C0.462413 50.5473 1.13436 53.2413 1.66936 53.7728C2.20437 54.3044 4.79538 54.7561 7.42839 54.7778L12.2142 54.8159L12.6935 48.9201C13.3846 40.4228 16.9534 35.0004 24.2654 31.3359C28.3108 29.3096 36.5449 29.4393 40.7811 31.5981C48.1031 35.3279 51.3971 41.2428 51.441 50.7342L51.472 57.5371L93.9252 57.5652C117.274 57.5806 137.262 57.4382 138.342 57.2496C140.13 56.9375 140.337 56.24 140.644 49.5115C140.928 43.2873 141.373 41.543 143.46 38.489C147.469 32.623 151.583 30.3989 159.121 30.0234C165.202 29.7196 165.868 29.8837 170.138 32.7337C175.955 36.6159 178.594 41.3072 179.372 49.1469L179.98 55.2695L183.286 55.2296C189.346 55.1579 194.696 53.6848 196.374 51.6267C198.411 49.126 198.575 42.3557 196.635 40.7566C195.702 39.9883 195.249 37.8531 195.214 34.0698C195.186 31.0121 194.672 27.0846 194.073 25.3403C192.771 21.5515 191.054 20.8722 174.524 17.6049C164.432 15.6094 162.328 14.8439 154.706 10.3875C150.017 7.64549 143.423 4.17238 140.053 2.6703C133.977 -0.0381681 133.795 -0.0599369 118.262 0.0207909C109.346 0.0679577 99.8449 0.625796 96.2077 1.31606ZM117.257 4.73294C117.941 6.5026 115.1 20.1166 113.791 21.3447C113.036 22.0522 106.482 22.6391 94.6848 23.0554L76.7276 23.6886L76.4254 21.6577C76.1232 19.6349 75.0322 18.7324 71.5601 17.6349C70.0145 17.146 70.4874 16.5881 74.677 13.964C82.325 9.17297 92.3065 5.41414 99.6258 4.56785C110.201 3.34605 116.745 3.40682 117.257 4.73294ZM132.19 5.99102C137.984 9.3444 144.784 15.1505 145.326 17.2077C146.148 20.3352 143.562 21.1615 131.72 21.5534L120.401 21.9271L120.409 19.7773C120.416 17.36 122.061 6.44546 122.68 4.70119C123.348 2.82177 127.744 3.41862 132.19 5.99102ZM24.9958 36.4671C20.9641 38.7076 17.2355 44.8002 17.2355 49.1487C17.2355 52.8767 20.3853 58.4242 24.0984 61.2388C28.5637 64.6221 35.558 64.7827 39.891 61.5998C44.9497 57.8836 46.7209 54.1565 46.2836 48.1482C45.8308 41.9276 43.8122 38.7856 38.6301 36.2349C33.8242 33.8684 29.5397 33.941 24.9958 36.4671ZM154.467 35.3605C152.867 35.8467 150.3 37.7588 148.764 39.6101C143.714 45.6964 143.921 53.0163 149.31 58.943C158.301 68.8308 173.125 63.3831 174.077 49.8417C174.366 45.7236 174.05 44.2914 172.294 41.7471C171.119 40.0473 169.131 37.9066 167.876 36.9905C165.105 34.9687 158.432 34.1578 154.467 35.3605Z" fill="url(#paint0_linear_116_1560)"/>
<defs>
<linearGradient id="paint0_linear_116_1560" x1="218.782" y1="64.0283" x2="-14.4996" y2="-19.6314" gradientUnits="userSpaceOnUse">
<stop stop-color="#5DB4FB"/>
<stop offset="1" stop-color="#003082"/>
</linearGradient>
</defs>
</svg>
