<svg width="195" height="71" viewBox="0 0 195 71" fill="none" xmlns="http://www.w3.org/2000/svg">
<path fill-rule="evenodd" clip-rule="evenodd" d="M97.7047 0.568437C84.1204 1.85568 79.7421 3.57582 62.0824 14.558L51.8789 20.9034L40.2604 22.1992C28.0824 23.5562 15.7405 25.6214 9.54106 27.3396C5.65665 28.4157 2.12625 32.7294 2.11949 36.4086C2.11757 37.4865 1.66035 38.8187 1.10474 39.3691C-0.319957 40.7806 -0.385549 53.1236 1.01793 55.7124C1.98059 57.489 2.99824 57.8626 6.86915 57.8626C11.7558 57.8626 12.7261 57.0322 12.7261 52.8513C12.7261 46.8011 21.3187 38.7384 29.3084 37.2916C37.7612 35.7607 48.0948 42.6718 50.3414 51.3576C50.9259 53.6215 51.5866 56.0115 51.8095 56.6681C52.1249 57.5998 61.7515 57.8626 95.6067 57.8626H139L139.657 54.279C141.252 45.5674 146.526 39.804 154.783 37.7474C164.936 35.2198 175.448 41.9971 177.647 52.4891L178.773 57.8626H185.338C190.066 57.8626 192.248 57.4517 193.134 56.3947C193.81 55.5872 194.567 51.7781 194.817 47.9297C195.22 41.7038 195.055 40.7844 193.32 39.5794C191.891 38.5894 191.2 36.6953 190.74 32.5153C190.393 29.3742 189.919 25.8823 189.685 24.7546C189.443 23.5887 184.99 19.3046 179.366 14.8275C172.651 9.48069 169.317 6.17037 168.99 4.52286C168.658 2.85336 167.604 1.82414 165.614 1.22974C161.603 0.0323267 108.79 -0.482762 97.7047 0.568437ZM107.431 10.0808C107.261 12.9716 106.81 16.842 106.427 18.6816C105.767 21.8562 105.486 22.0559 100.9 22.6149C98.2439 22.9389 90.6651 23.3689 84.0586 23.5706C72.1189 23.9356 72.0466 23.9242 71.7321 21.7291C71.5585 20.5145 70.7994 19.3314 70.0441 19.1011C69.2898 18.8698 67.9394 18.4484 67.0433 18.1646C65.7922 17.767 66.5166 16.8706 70.1618 14.3038C80.7067 6.87563 89.3186 4.35084 102.915 4.70061L107.738 4.82484L107.431 10.0808ZM134.914 6.44846C137.398 7.33816 138.175 8.3196 139.015 11.6261C139.585 13.8699 140.052 16.9614 140.052 18.4971C140.052 21.0936 139.74 21.3315 135.577 21.8963C133.116 22.2308 126.605 22.5041 121.108 22.5041C111.382 22.5041 111.115 22.4468 111.134 20.3539C111.18 15.1801 113.048 5.88368 114.197 5.09528C115.789 4.00586 130.84 4.98921 134.914 6.44846ZM165.466 7.68888C166.977 8.46963 171.031 11.3299 174.477 14.0467C179.501 18.0078 180.443 19.1508 179.233 19.8216C177.206 20.9455 170.962 17.7288 165.518 12.7585C159.69 7.43659 159.662 4.69009 165.466 7.68888ZM147.646 13.4045C151.891 17.9658 152.561 20.0328 150.101 20.9684C147.092 22.1123 144.819 21.5265 144.007 19.3983C142.558 15.5977 141.759 9.1252 142.739 9.1252C143.248 9.1252 145.457 11.0508 147.646 13.4045ZM27.7921 42.5753C16.4745 46.0538 14.0399 61.602 23.7784 68.2131C30.5624 72.8183 38.1557 71.5502 43.2246 64.9668C49.8185 56.4014 44.6445 43.702 33.9472 42.1969C32.0903 41.935 29.321 42.1061 27.7921 42.5753ZM152.853 43.4937C147.533 45.8866 144.882 50.1898 144.885 56.4292C144.894 70.7283 162.69 76.443 170.458 64.6419C173.942 59.3486 174.288 55.2776 171.685 50.2175C170.07 47.0792 168.309 45.3361 165.168 43.767C159.95 41.16 158.132 41.1199 152.853 43.4937Z" fill="url(#paint0_linear_116_1535)"/>
<defs>
<linearGradient id="paint0_linear_116_1535" x1="215.467" y1="71.0314" x2="-19.9648" y2="-3.92216" gradientUnits="userSpaceOnUse">
<stop stop-color="#5DB4FB"/>
<stop offset="1" stop-color="#003082"/>
</linearGradient>
</defs>
</svg>
