<svg width="194" height="67" viewBox="0 0 194 67" fill="none" xmlns="http://www.w3.org/2000/svg">
<path fill-rule="evenodd" clip-rule="evenodd" d="M104.009 0.50752C93.384 1.86166 80.8129 6.83995 65.196 15.8768C59.7946 19.0032 56.959 19.8374 44.0779 22.0958C25.4114 25.3673 13.9692 27.9881 9.89241 29.9256C7.74604 30.9453 6.04603 32.8713 4.61575 35.9053C3.45522 38.3666 1.86943 41.1239 1.09286 42.0321C0.0695924 43.2277 -0.195344 45.1979 0.132947 49.1603C0.701217 56.0261 3.08181 58.4 8.96513 57.9675L12.8806 57.6801L13.6332 51.562C15.0952 39.6823 21.1474 32.7598 31.8265 30.7541C39.7727 29.2615 51.4376 36.5714 53.6099 44.404C54.1685 46.4203 54.6283 50.773 54.6312 54.0761L54.637 60.0828H98.7134C133.104 60.0828 142.884 59.8185 143.221 58.8815C143.458 58.2212 143.443 56.3077 143.187 54.6307C141.665 44.6501 149.524 33.347 159.364 31.3634C165.689 30.088 170.453 31.0529 175.654 34.6617C181.26 38.5512 183.557 42.9249 184.178 50.896L184.706 57.6801L188.338 57.5677C190.335 57.5062 192.258 57.1669 192.61 56.8142C193.947 55.4754 194.547 45.2123 193.374 43.7447C192.74 42.9519 191.479 37.7621 190.57 32.212C189.662 26.6619 188.493 21.0156 187.973 19.6653C187.347 18.0402 184.201 15.552 178.667 12.3065C163.897 3.64442 160.976 2.48346 151.37 1.45705C138.187 0.049094 111.764 -0.481413 104.009 0.50752ZM119.279 4.10093C120.028 5.32917 116.984 21.0963 115.774 22.2477C115.07 22.9176 108.117 23.5807 97.6614 23.9757L80.691 24.6167L80.3829 21.9315C80.1391 19.8095 79.4834 19.1454 77.2497 18.7619C75.6956 18.4948 74.3997 17.8624 74.37 17.3569C74.2193 14.8168 94.6607 5.69918 103.367 4.42192C110.605 3.35995 118.726 3.19657 119.279 4.10093ZM147.712 5.02259C153.053 5.93848 163.977 18.2708 161.577 20.6735C161.073 21.178 152.084 21.8873 141.599 22.2515L122.537 22.9118L123.244 15.3454C123.634 11.184 124.348 6.73808 124.831 5.4666C125.701 3.17735 125.802 3.16101 135.049 3.803C140.186 4.15956 145.885 4.70832 147.712 5.02259ZM26.9146 37.8121C22.5009 40.2417 19.1316 46.0513 19.1249 51.241C19.1191 56.3298 20.8604 59.8435 25.3442 63.7848C31.6431 69.3215 41.6147 67.5214 47.3157 59.8166C48.7719 57.8493 49.2998 55.6571 49.3238 51.4803C49.3603 45.3862 47.8129 42.3041 42.8588 38.6011C39.2466 35.9005 31.1171 35.4988 26.9146 37.8121ZM156.388 38.0725C151.635 40.8615 149.428 44.2791 148.912 49.6466C148.35 55.5129 149.845 59.1505 154.583 63.4359C157.972 66.5017 158.839 66.8102 164.053 66.8102C169.5 66.8102 170.01 66.6017 174.04 62.7257C177.459 59.4369 178.417 57.7657 178.955 54.1482C179.775 48.6231 178.361 43.959 174.844 40.6011C169.711 35.6978 162.19 34.6675 156.388 38.0725Z" fill="url(#paint0_linear_116_1555)"/>
<defs>
<linearGradient id="paint0_linear_116_1555" x1="214.362" y1="67.0296" x2="-17.4839" y2="-10.7879" gradientUnits="userSpaceOnUse">
<stop stop-color="#5DB4FB"/>
<stop offset="1" stop-color="#003082"/>
</linearGradient>
</defs>
</svg>
