<svg width="210" height="100%" viewBox="0 0 210 26" fill="none" xmlns="http://www.w3.org/2000/svg">
<path d="M18.5127 12.34V11.34H17.6841L17.5301 12.1541L18.5127 12.34ZM22.1127 12.34L23.1073 12.4432L23.2218 11.34H22.1127V12.34ZM19.3827 17.71L20.0563 18.4491L20.0567 18.4487L19.3827 17.71ZM3.78266 17.41L3.07126 18.1128L3.07555 18.1171L3.78266 17.41ZM3.78266 5.5L4.48976 6.20711H4.48976L3.78266 5.5ZM19.3827 5.23L18.7039 5.96451L18.7137 5.97329L19.3827 5.23ZM22.1127 10.57V11.57H23.2218L23.1073 10.4668L22.1127 10.57ZM18.5127 10.57L17.5301 10.7559L17.6841 11.57H18.5127V10.57ZM17.6427 8.56L18.4491 7.96864L18.4428 7.96003L18.4363 7.95157L17.6427 8.56ZM15.9327 7.15L15.4538 8.02789L15.4695 8.03644L15.4854 8.04443L15.9327 7.15ZM7.56266 7.15L8.00987 8.04443L8.02027 8.03923L8.03054 8.03379L7.56266 7.15ZM5.88266 8.56L6.68491 9.15703L6.68906 9.15136L5.88266 8.56ZM5.88266 14.35L6.68908 13.7586L6.68489 13.753L5.88266 14.35ZM7.56266 15.76L7.11544 16.6544L7.56266 15.76ZM15.9327 15.76L15.4854 14.8655L15.4747 14.871L15.9327 15.76ZM17.6127 14.35L16.819 13.7416L16.8126 13.75L16.8063 13.7586L17.6127 14.35ZM18.5127 13.34H22.1127V11.34H18.5127V13.34ZM21.118 12.2368C20.9238 14.1085 20.1307 15.6737 18.7086 16.9713L20.0567 18.4487C21.8346 16.8263 22.8615 14.8115 23.1073 12.4432L21.118 12.2368ZM18.7091 16.9709C17.3153 18.2411 15.6863 18.87 13.7727 18.87V20.87C16.179 20.87 18.29 20.0589 20.0563 18.4491L18.7091 16.9709ZM13.7727 18.87H9.75266V20.87H13.7727V18.87ZM9.75266 18.87C7.67521 18.87 5.94035 18.1535 4.48976 16.7029L3.07555 18.1171C4.90496 19.9465 7.1501 20.87 9.75266 20.87V18.87ZM4.49404 16.7072C3.03775 15.2331 2.32266 13.4952 2.32266 11.44H0.322656C0.322656 14.0248 1.24756 16.2669 3.07128 18.1128L4.49404 16.7072ZM2.32266 11.44C2.32266 9.38513 3.03736 7.65951 4.48976 6.20711L3.07555 4.79289C1.24795 6.62049 0.322656 8.85487 0.322656 11.44H2.32266ZM4.48976 6.20711C5.94035 4.75652 7.67521 4.04 9.75266 4.04V2.04C7.1501 2.04 4.90496 2.96348 3.07555 4.79289L4.48976 6.20711ZM9.75266 4.04H13.7727V2.04H9.75266V4.04ZM13.7727 4.04C15.6822 4.04 17.3096 4.67595 18.704 5.96445L20.0613 4.49555C18.2957 2.86405 16.1831 2.04 13.7727 2.04V4.04ZM18.7137 5.97329C20.1316 7.24945 20.9238 8.80224 21.118 10.6732L23.1073 10.4668C22.8615 8.09776 21.8337 6.09055 20.0516 4.48671L18.7137 5.97329ZM22.1127 9.57H18.5127V11.57H22.1127V9.57ZM19.4952 10.3841C19.3278 9.49935 18.9784 8.69047 18.4491 7.96864L16.8363 9.15136C17.1869 9.62953 17.4175 10.1606 17.5301 10.7559L19.4952 10.3841ZM18.4363 7.95157C17.8834 7.23051 17.1947 6.66301 16.3799 6.25557L15.4854 8.04443C16.0306 8.31699 16.4819 8.68949 16.8491 9.16843L18.4363 7.95157ZM16.4115 6.2721C15.599 5.82892 14.7135 5.61 13.7727 5.61V7.61C14.3919 7.61 14.9463 7.75108 15.4538 8.02789L16.4115 6.2721ZM13.7727 5.61H9.75266V7.61H13.7727V5.61ZM9.75266 5.61C8.81189 5.61 7.92097 5.82881 7.09477 6.26621L8.03054 8.03379C8.56434 7.75119 9.13342 7.61 9.75266 7.61V5.61ZM7.11544 6.25557C6.29655 6.66502 5.61231 7.23765 5.07625 7.96864L6.68906 9.15136C7.033 8.68235 7.46876 8.31498 8.00987 8.04443L7.11544 6.25557ZM5.08042 7.96299C4.31098 8.99693 3.92266 10.1766 3.92266 11.47H5.92266C5.92266 10.6034 6.17433 9.84307 6.68489 9.15701L5.08042 7.96299ZM3.92266 11.47C3.92266 12.7477 4.31358 13.9166 5.08042 14.947L6.68489 13.753C6.17173 13.0634 5.92266 12.3123 5.92266 11.47H3.92266ZM5.07625 14.9414C5.61231 15.6724 6.29655 16.245 7.11544 16.6544L8.00987 14.8656C7.46876 14.595 7.033 14.2276 6.68906 13.7586L5.07625 14.9414ZM7.11544 16.6544C7.93798 17.0657 8.82158 17.27 9.75266 17.27V15.27C9.12373 15.27 8.54733 15.1343 8.00987 14.8656L7.11544 16.6544ZM9.75266 17.27H13.7727V15.27H9.75266V17.27ZM13.7727 17.27C14.7037 17.27 15.5818 17.0656 16.3906 16.649L15.4747 14.871C14.9635 15.1344 14.4017 15.27 13.7727 15.27V17.27ZM16.3799 16.6544C17.1988 16.245 17.883 15.6724 18.4191 14.9414L16.8063 13.7586C16.4623 14.2276 16.0266 14.595 15.4854 14.8656L16.3799 16.6544ZM18.4063 14.9584C18.961 14.2348 19.326 13.4202 19.4952 12.5259L17.5301 12.1541C17.4193 12.7398 17.1843 13.2652 16.819 13.7416L18.4063 14.9584ZM35.7969 3.04L36.6803 2.57146L36.3985 2.04H35.7969V3.04ZM44.7069 19.84V20.84H46.3692L45.5903 19.3715L44.7069 19.84ZM40.6869 19.84L39.806 20.3134L40.0891 20.84H40.6869V19.84ZM38.1069 15.04L38.9877 14.5666L38.7047 14.04H38.1069V15.04ZM30.4269 15.04V14.04H29.8258L29.5438 14.5708L30.4269 15.04ZM27.8769 19.84V20.84H28.478L28.76 20.3092L27.8769 19.84ZM23.8269 19.84L22.9434 19.3715L22.1646 20.84H23.8269V19.84ZM32.7369 3.04V2.04H32.1353L31.8534 2.57146L32.7369 3.04ZM32.3169 11.44L31.4343 10.9698L30.651 12.44H32.3169V11.44ZM36.2169 11.44V12.44H37.8827L37.0994 10.9698L36.2169 11.44ZM34.2669 7.78L35.1494 7.30979L34.2669 5.6533L33.3843 7.30979L34.2669 7.78ZM34.9134 3.50854L43.8234 20.3085L45.5903 19.3715L36.6803 2.57146L34.9134 3.50854ZM44.7069 18.84H40.6869V20.84H44.7069V18.84ZM41.5677 19.3666L38.9877 14.5666L37.2261 15.5134L39.806 20.3134L41.5677 19.3666ZM38.1069 14.04H30.4269V16.04H38.1069V14.04ZM29.5438 14.5708L26.9938 19.3708L28.76 20.3092L31.31 15.5092L29.5438 14.5708ZM27.8769 18.84H23.8269V20.84H27.8769V18.84ZM24.7103 20.3085L33.6203 3.50854L31.8534 2.57146L22.9434 19.3715L24.7103 20.3085ZM32.7369 4.04H35.7969V2.04H32.7369V4.04ZM32.3169 12.44H36.2169V10.44H32.3169V12.44ZM37.0994 10.9698L35.1494 7.30979L33.3843 8.25021L35.3343 11.9102L37.0994 10.9698ZM33.3843 7.30979L31.4343 10.9698L33.1994 11.9102L35.1494 8.25021L33.3843 7.30979ZM60.1604 13.24V12.24H57.6997L59.4628 13.9565L60.1604 13.24ZM66.9704 19.87V20.87H69.4311L67.668 19.1535L66.9704 19.87ZM61.8404 19.87L61.1444 20.588L61.4353 20.87H61.8404V19.87ZM55.0004 13.24L55.6964 12.522L55.4055 12.24H55.0004V13.24ZM49.6604 13.24V12.24H48.6604V13.24H49.6604ZM49.6604 19.87V20.87H50.6604V19.87H49.6604ZM46.0604 19.87H45.0604V20.87H46.0604V19.87ZM46.0604 3.04V2.04H45.0604V3.04H46.0604ZM65.4704 11.74L66.1775 12.4471L65.4704 11.74ZM49.6604 9.67H48.6604V10.67H49.6604V9.67ZM62.9504 9.22L62.2433 8.51289L62.9504 9.22ZM62.9504 7.06L63.6575 6.35289V6.35289L62.9504 7.06ZM49.6604 6.61V5.61H48.6604V6.61H49.6604ZM59.4628 13.9565L66.2728 20.5865L67.668 19.1535L60.858 12.5235L59.4628 13.9565ZM66.9704 18.87H61.8404V20.87H66.9704V18.87ZM62.5364 19.152L55.6964 12.522L54.3044 13.958L61.1444 20.588L62.5364 19.152ZM55.0004 12.24H49.6604V14.24H55.0004V12.24ZM48.6604 13.24V19.87H50.6604V13.24H48.6604ZM49.6604 18.87H46.0604V20.87H49.6604V18.87ZM47.0604 19.87V3.04H45.0604V19.87H47.0604ZM46.0604 4.04H61.8704V2.04H46.0604V4.04ZM61.8704 4.04C63.0022 4.04 63.9487 4.4325 64.7633 5.24711L66.1775 3.83289C64.9921 2.6475 63.5386 2.04 61.8704 2.04V4.04ZM64.7633 5.24711C65.5779 6.06171 65.9704 7.00823 65.9704 8.14H67.9704C67.9704 6.47177 67.3629 5.01829 66.1775 3.83289L64.7633 5.24711ZM65.9704 8.14C65.9704 9.27177 65.5779 10.2183 64.7633 11.0329L66.1775 12.4471C67.3629 11.2617 67.9704 9.80823 67.9704 8.14H65.9704ZM64.7633 11.0329C63.9487 11.8475 63.0022 12.24 61.8704 12.24V14.24C63.5386 14.24 64.9921 13.6325 66.1775 12.4471L64.7633 11.0329ZM61.8704 12.24H60.1604V14.24H61.8704V12.24ZM49.6604 10.67H61.8704V8.67H49.6604V10.67ZM61.8704 10.67C62.5586 10.67 63.1721 10.4125 63.6575 9.9271L62.2433 8.51289C62.1287 8.6275 62.0222 8.67 61.8704 8.67V10.67ZM63.6575 9.92711C64.1429 9.44171 64.4004 8.82823 64.4004 8.14H62.4004C62.4004 8.29177 62.3579 8.39829 62.2433 8.51289L63.6575 9.92711ZM64.4004 8.14C64.4004 7.45177 64.1429 6.83829 63.6575 6.35289L62.2433 7.76711C62.3579 7.88171 62.4004 7.98823 62.4004 8.14H64.4004ZM63.6575 6.35289C63.1721 5.8675 62.5586 5.61 61.8704 5.61V7.61C62.0222 7.61 62.1287 7.6525 62.2433 7.76711L63.6575 6.35289ZM61.8704 5.61H49.6604V7.61H61.8704V5.61ZM48.6604 6.61V9.67H50.6604V6.61H48.6604ZM97.6377 4.54L96.9234 5.23996L96.9305 5.24711L97.6377 4.54ZM97.6377 11.74L96.9305 11.0329L96.9234 11.0401L97.6377 11.74ZM81.8277 13.24V12.24H80.8277V13.24H81.8277ZM81.8277 19.87V20.87H82.8277V19.87H81.8277ZM78.2577 19.87H77.2577V20.87H78.2577V19.87ZM78.2577 3.04V2.04H77.2577V3.04H78.2577ZM95.1177 9.22L95.8248 9.92711L95.8248 9.92711L95.1177 9.22ZM95.1177 7.06L95.8248 6.35289L95.8248 6.35289L95.1177 7.06ZM81.8277 6.61V5.61H80.8277V6.61H81.8277ZM81.8277 9.67H80.8277V10.67H81.8277V9.67ZM94.0377 4.04C95.1932 4.04 96.1345 4.43489 96.9234 5.23993L98.3519 3.84007C97.1808 2.6451 95.7221 2.04 94.0377 2.04V4.04ZM96.9305 5.24711C97.7452 6.06171 98.1377 7.00823 98.1377 8.14H100.138C100.138 6.47177 99.5302 5.01829 98.3448 3.83289L96.9305 5.24711ZM98.1377 8.14C98.1377 9.27177 97.7452 10.2183 96.9305 11.0329L98.3448 12.4471C99.5302 11.2617 100.138 9.80823 100.138 8.14H98.1377ZM96.9234 11.0401C96.1345 11.8451 95.1932 12.24 94.0377 12.24V14.24C95.7221 14.24 97.1808 13.6349 98.3519 12.4399L96.9234 11.0401ZM94.0377 12.24H81.8277V14.24H94.0377V12.24ZM80.8277 13.24V19.87H82.8277V13.24H80.8277ZM81.8277 18.87H78.2577V20.87H81.8277V18.87ZM79.2577 19.87V3.04H77.2577V19.87H79.2577ZM78.2577 4.04H94.0377V2.04H78.2577V4.04ZM94.0377 10.67C94.7259 10.67 95.3394 10.4125 95.8248 9.92711L94.4106 8.51289C94.2959 8.6275 94.1894 8.67 94.0377 8.67V10.67ZM95.8248 9.92711C96.3102 9.44171 96.5677 8.82823 96.5677 8.14H94.5677C94.5677 8.29177 94.5252 8.39829 94.4106 8.51289L95.8248 9.92711ZM96.5677 8.14C96.5677 7.45177 96.3102 6.83829 95.8248 6.35289L94.4106 7.76711C94.5252 7.88171 94.5677 7.98823 94.5677 8.14H96.5677ZM95.8248 6.35289C95.3394 5.8675 94.7259 5.61 94.0377 5.61V7.61C94.1894 7.61 94.2959 7.6525 94.4106 7.76711L95.8248 6.35289ZM94.0377 5.61H81.8277V7.61H94.0377V5.61ZM80.8277 6.61V9.67H82.8277V6.61H80.8277ZM81.8277 10.67H94.0377V8.67H81.8277V10.67ZM112.818 3.04L113.702 2.57146L113.42 2.04H112.818V3.04ZM121.728 19.84V20.84H123.391L122.612 19.3715L121.728 19.84ZM117.708 19.84L116.828 20.3134L117.111 20.84H117.708V19.84ZM115.128 15.04L116.009 14.5666L115.726 14.04H115.128V15.04ZM107.448 15.04V14.04H106.847L106.565 14.5708L107.448 15.04ZM104.898 19.84V20.84H105.499L105.781 20.3092L104.898 19.84ZM100.848 19.84L99.9649 19.3715L99.1861 20.84H100.848V19.84ZM109.758 3.04V2.04H109.157L108.875 2.57146L109.758 3.04ZM109.338 11.44L108.456 10.9698L107.672 12.44H109.338V11.44ZM113.238 11.44V12.44H114.904L114.121 10.9698L113.238 11.44ZM111.288 7.78L112.171 7.30979L111.288 5.6533L110.406 7.30979L111.288 7.78ZM111.935 3.50854L120.845 20.3085L122.612 19.3715L113.702 2.57146L111.935 3.50854ZM121.728 18.84H117.708V20.84H121.728V18.84ZM118.589 19.3666L116.009 14.5666L114.248 15.5134L116.828 20.3134L118.589 19.3666ZM115.128 14.04H107.448V16.04H115.128V14.04ZM106.565 14.5708L104.015 19.3708L105.781 20.3092L108.331 15.5092L106.565 14.5708ZM104.898 18.84H100.848V20.84H104.898V18.84ZM101.732 20.3085L110.642 3.50854L108.875 2.57146L99.9649 19.3715L101.732 20.3085ZM109.758 4.04H112.818V2.04H109.758V4.04ZM109.338 12.44H113.238V10.44H109.338V12.44ZM114.121 10.9698L112.171 7.30979L110.406 8.25021L112.356 11.9102L114.121 10.9698ZM110.406 7.30979L108.456 10.9698L110.221 11.9102L112.171 8.25021L110.406 7.30979ZM137.182 13.24V12.24H134.721L136.484 13.9565L137.182 13.24ZM143.992 19.87V20.87H146.453L144.689 19.1535L143.992 19.87ZM138.862 19.87L138.166 20.588L138.457 20.87H138.862V19.87ZM132.022 13.24L132.718 12.522L132.427 12.24H132.022V13.24ZM126.682 13.24V12.24H125.682V13.24H126.682ZM126.682 19.87V20.87H127.682V19.87H126.682ZM123.082 19.87H122.082V20.87H123.082V19.87ZM123.082 3.04V2.04H122.082V3.04H123.082ZM142.492 11.74L143.199 12.4471L142.492 11.74ZM126.682 9.67H125.682V10.67H126.682V9.67ZM139.972 9.22L139.265 8.51289L139.972 9.22ZM139.972 7.06L140.679 6.35289V6.35289L139.972 7.06ZM126.682 6.61V5.61H125.682V6.61H126.682ZM136.484 13.9565L143.294 20.5865L144.689 19.1535L137.879 12.5235L136.484 13.9565ZM143.992 18.87H138.862V20.87H143.992V18.87ZM139.558 19.152L132.718 12.522L131.326 13.958L138.166 20.588L139.558 19.152ZM132.022 12.24H126.682V14.24H132.022V12.24ZM125.682 13.24V19.87H127.682V13.24H125.682ZM126.682 18.87H123.082V20.87H126.682V18.87ZM124.082 19.87V3.04H122.082V19.87H124.082ZM123.082 4.04H138.892V2.04H123.082V4.04ZM138.892 4.04C140.024 4.04 140.97 4.4325 141.785 5.24711L143.199 3.83289C142.014 2.6475 140.56 2.04 138.892 2.04V4.04ZM141.785 5.24711C142.599 6.06171 142.992 7.00823 142.992 8.14H144.992C144.992 6.47177 144.384 5.01829 143.199 3.83289L141.785 5.24711ZM142.992 8.14C142.992 9.27177 142.599 10.2183 141.785 11.0329L143.199 12.4471C144.384 11.2617 144.992 9.80823 144.992 8.14H142.992ZM141.785 11.0329C140.97 11.8475 140.024 12.24 138.892 12.24V14.24C140.56 14.24 142.014 13.6325 143.199 12.4471L141.785 11.0329ZM138.892 12.24H137.182V14.24H138.892V12.24ZM126.682 10.67H138.892V8.67H126.682V10.67ZM138.892 10.67C139.58 10.67 140.194 10.4125 140.679 9.9271L139.265 8.51289C139.15 8.6275 139.044 8.67 138.892 8.67V10.67ZM140.679 9.92711C141.164 9.44171 141.422 8.82823 141.422 8.14H139.422C139.422 8.29177 139.379 8.39829 139.265 8.51289L140.679 9.92711ZM141.422 8.14C141.422 7.45177 141.164 6.83829 140.679 6.35289L139.265 7.76711C139.379 7.88171 139.422 7.98823 139.422 8.14H141.422ZM140.679 6.35289C140.194 5.8675 139.58 5.61 138.892 5.61V7.61C139.044 7.61 139.15 7.6525 139.265 7.76711L140.679 6.35289ZM138.892 5.61H126.682V7.61H138.892V5.61ZM125.682 6.61V9.67H127.682V6.61H125.682ZM154.467 11.47L153.859 10.6768L152.825 11.4703L153.859 12.2634L154.467 11.47ZM165.417 19.87V20.87H168.364L166.026 19.0766L165.417 19.87ZM159.538 19.87L158.929 20.6632L159.198 20.87H159.538V19.87ZM151.527 13.72L152.136 12.9268L151.531 12.4618L150.923 12.9236L151.527 13.72ZM149.158 15.52L148.553 14.7236L148.158 15.0238V15.52H149.158ZM149.158 19.87V20.87H150.158V19.87H149.158ZM145.587 19.87H144.587V20.87H145.587V19.87ZM145.587 3.07V2.07H144.587V3.07H145.587ZM149.158 3.07H150.158V2.07H149.158V3.07ZM149.158 11.02H148.158V13.0466L149.766 11.8136L149.158 11.02ZM159.568 3.04V2.04H159.228L158.959 2.24636L159.568 3.04ZM165.447 3.04L166.056 3.83319L168.392 2.04H165.447V3.04ZM153.859 12.2634L164.809 20.6634L166.026 19.0766L155.076 10.6766L153.859 12.2634ZM165.417 18.87H159.538V20.87H165.417V18.87ZM160.146 19.0768L152.136 12.9268L150.919 14.5132L158.929 20.6632L160.146 19.0768ZM150.923 12.9236L148.553 14.7236L149.762 16.3164L152.132 14.5164L150.923 12.9236ZM148.158 15.52V19.87H150.158V15.52H148.158ZM149.158 18.87H145.587V20.87H149.158V18.87ZM146.587 19.87V3.07H144.587V19.87H146.587ZM145.587 4.07H149.158V2.07H145.587V4.07ZM148.158 3.07V11.02H150.158V3.07H148.158ZM149.766 11.8136L160.176 3.83364L158.959 2.24636L148.549 10.2264L149.766 11.8136ZM159.568 4.04H165.447V2.04H159.568V4.04ZM164.839 2.24681L153.859 10.6768L155.076 12.2632L166.056 3.83319L164.839 2.24681Z" fill="#177BC8"/>
<path d="M196.595 20.3207C197.423 20.315 198.09 19.6387 198.084 18.8103L197.99 5.31063C197.984 4.48223 197.308 3.81536 196.479 3.82115C195.651 3.82694 194.984 4.50319 194.99 5.33159L195.074 17.3313L183.074 17.4151C182.246 17.4209 181.579 18.0972 181.584 18.9256C181.59 19.754 182.266 20.4209 183.095 20.4151L196.595 20.3207ZM179.669 4.24752L195.531 19.8888L197.637 17.7527L181.776 2.11143L179.669 4.24752Z" fill="#177BC8"/>
</svg>
