<svg width="139" height="79" viewBox="0 0 139 79" fill="none" xmlns="http://www.w3.org/2000/svg">
<path fill-rule="evenodd" clip-rule="evenodd" d="M54.9689 1.18228C47.6043 3.25209 40.9053 7.79638 17.6044 26.5292C4.93022 36.7185 2.5348 39.8494 1.98267 46.9427C1.74332 50.0097 1.16259 53.0108 0.690559 53.612C0.218532 54.2122 -0.0828017 58.0246 0.020186 62.0829L0.208042 69.4608H3.37873C5.22869 69.4608 6.58947 68.9565 6.64573 68.2507C6.69818 67.5856 6.91845 64.8623 7.13492 62.2C7.66797 55.6256 10.956 49.5353 15.9442 45.8797C19.7528 43.0887 20.7083 42.8379 27.5446 42.8379C34.2865 42.8379 35.3821 43.1148 39.0764 45.751C44.9323 49.9303 47.6615 55.8299 47.8665 64.7549L48.0306 71.8811L67.3665 72.1435C79.6173 72.309 87.3919 72.0312 88.5839 71.3835C90.1353 70.5403 90.4653 69.3437 90.4653 64.5555C90.4653 57.9365 92.2752 52.7833 95.999 48.7995C104.405 39.8087 118.846 40.2492 126.55 49.7318C130.064 54.0563 131.457 58.3441 131.464 64.8623C131.47 69.1026 131.653 69.4608 133.82 69.4608C136.856 69.4608 137.796 67.5314 138.631 59.5668C139.298 53.2247 139.253 53.0331 136.86 51.9265C134.957 51.0455 134.3 49.8993 133.931 46.8149C131.462 26.1604 130.432 23.0286 121.518 9.05492C119.175 5.38289 117.345 1.89771 117.451 1.31007C117.749 -0.355067 60.8535 -0.47124 54.9689 1.18228ZM93.697 5.80789C95.3973 8.51375 99.0476 20.5105 99.0476 23.3926C99.0476 28.4751 98.609 28.5661 70.6783 29.298L44.693 29.9786V27.4228C44.693 24.8031 44.0655 24.2948 39.925 23.5591C38.6139 23.3258 37.4047 23.1031 37.2378 23.0634C35.919 22.7507 47.7502 9.65321 51.762 6.98414C54.9574 4.85818 62.8427 3.95107 79.7155 3.76712C91.827 3.63546 92.383 3.71678 93.697 5.80789ZM110.35 5.00727C116.001 7.97451 124.795 20.0148 124.795 24.7857C124.795 27.1701 123.028 27.8323 116.673 27.8323C109.997 27.8323 106.877 26.5399 105.61 23.2512C103.286 17.2122 100.067 5.27253 100.55 4.47965C101.357 3.15335 107.441 3.48057 110.35 5.00727ZM21.3301 48.5614C13.3685 52.153 9.76968 62.8642 14.1009 70.0746C16.5802 74.2046 21.8965 78.1535 25.8529 78.805C29.7874 79.4536 35.2429 76.8833 39.4311 72.4087C41.96 69.7058 42.2757 68.7009 42.2919 63.293C42.3062 58.1117 41.9152 56.6896 39.6371 53.6556C35.0007 47.479 28.0281 45.539 21.3301 48.5614ZM103.358 49.4085C92.1503 55.8531 93.1649 71.7707 105.135 77.2899C110.183 79.6163 111.841 79.5882 116.927 77.0885C128.474 71.4135 129.242 55.5937 118.275 49.3359C113.482 46.601 108.195 46.6271 103.358 49.4085Z" fill="url(#paint0_linear_116_1525)"/>
<defs>
<linearGradient id="paint0_linear_116_1525" x1="153.59" y1="79.035" x2="-23.8595" y2="42.843" gradientUnits="userSpaceOnUse">
<stop stop-color="#5DB4FB"/>
<stop offset="1" stop-color="#003082"/>
</linearGradient>
</defs>
</svg>
