<svg width="200" height="78" viewBox="0 0 200 78" fill="none" xmlns="http://www.w3.org/2000/svg">
<path fill-rule="evenodd" clip-rule="evenodd" d="M101.902 0.55801C89.9561 0.924227 80.2954 1.65019 78.1232 2.34563C72.8571 4.03059 60.3512 10.5245 49.175 17.3771C43.8558 20.6389 36.8758 24.2391 33.6628 25.3784C30.4499 26.5168 26.381 28.0196 24.6204 28.716C22.8598 29.4123 18.4333 31.0918 14.7832 32.4466C7.36688 35.2006 5.99135 36.6599 3.90429 43.9926C3.1086 46.79 1.82819 49.803 1.05903 50.688C-0.0265714 51.9365 -0.215888 53.6307 0.212135 58.2667C0.880692 65.5068 2.20317 67.865 6.0005 68.5845C11.573 69.6425 12.216 69.0608 12.8717 62.3709C13.201 59.013 14.0899 55.065 14.8481 53.5965C18.1488 47.2034 25.1573 43.0539 32.5937 43.0881C44.2473 43.1417 52.5461 52.7984 51.894 65.5438L51.6005 71.2738L71.2639 71.5679C82.0788 71.7307 102.52 71.5799 116.687 71.2331L142.447 70.6043L141.966 65.8527C141.332 59.5836 142.923 53.9867 146.519 49.8465C154.431 40.7345 168.748 40.864 176.295 50.1156C179.665 54.2466 181.001 58.3425 181.008 64.5691C181.013 68.7445 181.138 68.9618 183.528 68.9563C188.746 68.9452 197.058 67.0827 198.061 65.7001C198.635 64.9094 199.388 61.9575 199.737 59.1397C200.234 55.1085 200.061 53.6714 198.923 52.3998C198.127 51.5102 197.476 49.3314 197.476 47.5576C197.476 38.2542 191.266 21.1743 183.228 8.37247C181.626 5.82006 180.158 2.90697 179.966 1.89895C179.627 0.118736 178.782 0.063248 150.82 0.00313679C134.982 -0.0310804 112.969 0.218613 101.902 0.55801ZM135.601 5.39558C136.957 6.39805 137.145 7.9443 136.92 16.2618L136.656 25.9592L121.375 26.7665C112.971 27.2104 105.408 27.3075 104.567 26.982C103.245 26.4687 103.125 25.433 103.67 19.2378C104.017 15.3056 104.599 10.6308 104.965 8.85059L105.631 5.61383L116.57 5.10612C122.587 4.82683 128.975 4.51518 130.765 4.41253C132.555 4.3108 134.732 4.75285 135.601 5.39558ZM100.083 8.61939C99.8262 10.5272 99.2299 15.1613 98.7589 18.9188C98.287 22.6762 97.5278 26.1284 97.0706 26.5908C96.6133 27.0532 88.1681 27.7246 78.3043 28.0825L60.3694 28.7335L60.1006 26.0359C59.8856 23.8803 59.1933 23.1219 56.6572 22.2628L53.4818 21.1882L57.9467 17.9117C69.0095 9.79387 81.2932 5.28183 92.5388 5.206L100.552 5.15143L100.083 8.61939ZM160.22 6.72635C165.135 8.08394 166.775 9.15577 172.096 14.4918C178.054 20.465 179.529 23.281 177.126 24.0911C174.636 24.9299 143.189 26.4576 142.562 25.7696C141.668 24.7884 140.615 8.49177 141.324 6.62185C142.097 4.58639 152.683 4.64465 160.22 6.72635ZM25.7856 49.6273C18.6619 53.1933 15.7728 61.0327 18.9253 68.2396C22.7373 76.9529 31.9809 80.2665 39.4521 75.5972C50.0082 69.0007 49.0488 53.737 37.7803 48.9762C33.5586 47.1923 30.2972 47.3699 25.7856 49.6273ZM154.841 49.4618C142.562 55.1002 144.726 73.3278 158.157 77.3968C161.161 78.3068 162.419 78.2245 165.867 76.8938C178.769 71.911 179.404 54.328 166.872 49.0345C162.657 47.2534 159.397 47.369 154.841 49.4618Z" fill="url(#paint0_linear_116_1658)"/>
<defs>
<linearGradient id="paint0_linear_116_1658" x1="220.992" y1="78.0345" x2="-23.3641" y2="5.40566" gradientUnits="userSpaceOnUse">
<stop stop-color="#5DB4FB"/>
<stop offset="1" stop-color="#003082"/>
</linearGradient>
</defs>
</svg>
