<svg width="208" height="78" viewBox="0 0 208 78" fill="none" xmlns="http://www.w3.org/2000/svg">
<path fill-rule="evenodd" clip-rule="evenodd" d="M72.8075 1.83808C70.5857 2.84585 63.8854 7.59503 57.9186 12.392C49.6353 19.051 46.4186 21.1143 44.3155 21.1143C41.0418 21.1143 16.038 25.2171 10.1218 26.7251C3.79797 28.337 2.75887 30.0757 2.75887 39.0481C2.75887 44.9688 2.45147 46.7811 1.37831 47.193C-0.362111 47.8597 -0.486361 55.5052 1.18872 58.8136C2.12842 60.6682 3.0405 61.1123 5.90746 61.1123C9.77487 61.1123 9.993 60.8732 12.432 53.9504C15.5346 45.1425 22.465 40.2692 32.0111 40.1828C42.1821 40.0899 49.6021 46.2101 52.8326 57.3571L53.9205 61.1123H98.4132H142.906L144.195 56.0551C146.691 46.2662 154.651 40.0844 164.635 40.1782C175.177 40.2775 183.436 47.4532 185.386 58.2058L186.027 61.7357L195.709 61.424C204.017 61.1564 205.578 60.8585 206.697 59.3276C208.472 56.8992 208.421 48.3516 206.621 46.8602C205.602 46.0151 205.24 43.7587 205.235 38.2427C205.232 32.2181 204.151 24.7546 203.127 23.6761C203.024 23.5676 184.302 23.2577 161.523 22.9864L120.106 22.4936L119.431 19.2754C119.059 17.5053 118.139 12.7791 117.387 8.77198C116.634 4.76483 115.489 1.15122 114.841 0.74021C114.194 0.330115 105.38 -0.00274146 95.2563 1.70223e-05C78.847 0.00553398 76.4098 0.205065 72.8075 1.83808ZM98.4776 4.41726C98.4776 7.36056 96.2604 20.9608 95.5646 22.2858C94.7878 23.7643 93.2701 23.8931 79.3357 23.665C64.6944 23.425 63.9645 23.3266 63.9636 21.5851C63.9636 20.2822 63.1859 19.6229 61.255 19.2864C59.7649 19.028 58.6273 18.5067 58.7276 18.1297C58.827 17.7527 61.428 15.1303 64.5076 12.3028C72.7016 4.77587 75.6754 3.6881 88.1234 3.6642C93.8187 3.65316 98.4776 3.99154 98.4776 4.41726ZM109.933 4.48255C110.218 4.94413 110.721 9.12047 111.051 13.7639C111.713 23.0931 111.36 23.8443 106.301 23.8443C101.46 23.8443 100.931 22.9497 101.631 15.9302C102.836 3.82695 102.907 3.64397 106.349 3.64397C108.035 3.64397 109.647 4.02096 109.933 4.48255ZM24.3876 46.7415C11.9101 54.4828 12.8876 70.2089 26.2284 76.3796C31.0069 78.59 33.5057 78.5505 38.3874 76.1902C50.8778 70.1491 51.5386 52.5822 39.5103 46.3673C35.7873 44.4447 27.77 44.6423 24.3876 46.7415ZM156.557 46.6009C154.838 47.4477 152.249 50.0012 150.804 52.2769C145.834 60.1064 147.84 69.2057 155.784 74.8716C166.252 82.3388 180.902 73.9052 180.599 60.5873C180.469 54.8919 178.49 51.1726 173.777 47.7613C170.634 45.4874 169.114 45.0249 164.836 45.0423C161.919 45.0543 158.327 45.7301 156.557 46.6009Z" fill="url(#paint0_linear_116_1545)"/>
<defs>
<linearGradient id="paint0_linear_116_1545" x1="229.832" y1="78.0345" x2="-22.6265" y2="-0.003959" gradientUnits="userSpaceOnUse">
<stop stop-color="#5DB4FB"/>
<stop offset="1" stop-color="#003082"/>
</linearGradient>
</defs>
</svg>
