<svg width="179" height="58" viewBox="0 0 179 58" fill="none" xmlns="http://www.w3.org/2000/svg">
<path fill-rule="evenodd" clip-rule="evenodd" d="M84.776 4.90802C79.4001 7.61042 72.6152 11.052 69.6984 12.5557C64.7969 15.0811 63.2471 15.368 49.3163 16.3215C33.8294 17.3812 19.3266 19.2346 13.6785 20.8755C9.31149 22.144 7.17139 24.0655 3.28687 30.2031C0.456859 34.6753 -0.0237941 36.2045 0.000878284 40.6459C0.0401713 47.7832 1.41908 49.3951 7.52138 49.4441L12.3078 49.4822L12.8177 42.9805C13.4382 35.0558 16.2261 30.3048 22.3467 26.7397C25.5386 24.8809 27.6887 24.3315 31.7332 24.3415C37.8903 24.3561 40.5777 25.2496 44.6103 28.6212C49.5612 32.7611 51.5697 37.5984 51.4857 45.1789L51.4126 51.7724L88.5152 51.5354L125.618 51.2984L126.213 44.9419C126.917 37.4186 127.79 34.9423 131.125 31.0031C138.351 22.47 151.309 21.848 159.388 29.6455C163.771 33.8753 165.368 37.6892 165.368 43.9294C165.368 49.5267 165.777 49.8627 171.539 48.9928C176.758 48.2064 178.322 46.5065 178.85 41.0472C179.212 37.3069 178.982 36.3534 177.467 35.2992C176.149 34.382 175.472 32.4996 174.996 28.4315C174.565 24.7393 173.759 22.3038 172.632 21.2913C170.26 19.1583 158.8 16.6284 145.393 15.279C134.252 14.1567 134.049 14.1703 130.445 16.2316C126.69 18.3792 125.58 18.1249 125.011 14.9857C124.434 11.812 121.786 12.2888 120.629 15.7748C119.637 18.7606 119.273 18.9858 114.373 19.6641C111.511 20.06 103.618 20.3933 96.8334 20.4042L84.4973 20.4241L84.7924 17.9179C85.0474 15.754 84.7029 15.3344 82.2795 14.8532C80.7352 14.5462 79.4714 13.9324 79.4714 13.4892C79.4714 12.5258 87.1747 7.54777 93.8636 4.18793C96.5017 2.86215 98.661 1.37656 98.661 0.885292C98.661 -1.09248 94.0583 0.241472 84.776 4.90802ZM25.969 30.3284C14.712 35.2002 14.6782 51.3401 25.9142 56.6387C35.3335 61.0801 46.575 54.0934 46.575 43.7959C46.575 33.1516 35.7666 26.0868 25.969 30.3284ZM138.506 31.1084C128.8 36.6386 129.3 51.4709 139.357 56.3082C147.48 60.2165 156.297 56.8476 159.456 48.6287C164.388 35.7941 150.568 24.2371 138.506 31.1084Z" fill="url(#paint0_linear_116_1550)"/>
<defs>
<linearGradient id="paint0_linear_116_1550" x1="197.788" y1="58.0257" x2="-13.2254" y2="-17.4636" gradientUnits="userSpaceOnUse">
<stop stop-color="#5DB4FB"/>
<stop offset="1" stop-color="#003082"/>
</linearGradient>
</defs>
</svg>
