<svg width="210" height="67" viewBox="0 0 210 67" fill="none" xmlns="http://www.w3.org/2000/svg">
<path fill-rule="evenodd" clip-rule="evenodd" d="M102.17 0.694332C94.0232 2.10163 91.3865 3.10781 73.2807 11.7188C56.522 19.688 56.3487 19.745 41.984 21.9236C24.1805 24.6242 10.045 28.0497 7.6222 30.2495C6.61685 31.1629 4.51275 34.6077 2.94503 37.9036C-2.59111 49.5477 -0.111455 58.6033 8.61502 58.6033C13.0476 58.6033 13.5763 57.7401 13.5763 50.4978C13.5763 36.4064 30.3243 26.536 42.947 33.1878C50.7827 37.3179 54.3101 43.4835 54.4382 53.2795C54.5268 59.9642 54.5585 60.0434 57.3367 60.5286C58.8813 60.7993 80.1101 60.8022 104.51 60.5364L148.874 60.0531L149.038 53.1471C149.269 43.3975 152.091 38.3154 159.825 33.7194C169.406 28.0274 182.771 32.1304 187.97 42.3594C189.613 45.5916 190.372 49.8589 190.731 57.8784C190.84 60.2986 207.638 57.4038 209.07 54.7187C210.251 52.5034 210.33 43.4429 209.175 42.7257C208.708 42.4368 208.025 38.8228 207.656 34.6947C206.458 21.2828 206.744 21.5776 191.209 17.7259C185.933 16.4182 179.449 14.0675 176.8 12.5036C171.032 9.09559 162.381 5.01578 155.134 2.28527C150.468 0.528085 147.315 0.260351 128.652 0.0351452C117 -0.105971 105.083 0.190759 102.17 0.694332ZM119.216 6.16791C118.926 7.6303 118.379 11.5729 118.001 14.9297C117.624 18.2865 116.693 21.6578 115.933 22.4205C115.052 23.3048 112.537 23.8075 108.994 23.8075C105.936 23.8075 98.1283 24.0936 91.6417 24.4444L79.8491 25.0804L80.1756 22.8689C80.4963 20.7029 79.4928 19.7015 75.8682 18.5678C73.3625 17.7839 74.5008 16.5641 81.2676 12.781C92.6538 6.41534 101.736 3.84335 113.605 3.62395L119.744 3.50989L119.216 6.16791ZM145.816 4.60789C148.812 5.21199 151.692 6.22397 152.215 6.85706C152.774 7.53365 152.916 10.6991 152.559 14.5373C152.037 20.1491 151.644 21.1852 149.765 21.9024C148.008 22.5722 132.67 23.1637 123.983 22.896C122.376 22.8457 122.266 22.2561 122.856 16.8C123.215 13.4779 123.924 9.12845 124.432 7.13446L125.355 3.50989H132.862C136.99 3.50989 142.819 4.0038 145.816 4.60789ZM161.393 11.0229C166.872 14.0221 167.932 16.7603 164.822 19.8823C163.405 21.3041 161.596 21.8744 158.504 21.8744H154.171V15.7532C154.171 10.065 154.61 8.30882 156.017 8.36488C156.326 8.37744 158.745 9.57403 161.393 11.0229ZM26.0853 38.5474C20.6175 42.2831 18.8726 45.4969 18.8726 51.8374C18.8726 58.179 20.6166 61.3918 26.0882 65.1294C28.7229 66.9291 30.2011 67.2297 34.6221 66.8625C40.2709 66.3946 43.3861 64.6722 46.7392 60.1643C49.5386 56.4015 49.5222 47.2608 46.7103 43.4507C41.439 36.3108 32.4785 34.1805 26.0853 38.5474ZM163.271 37.7325C159.326 39.4569 155.351 44.3766 154.583 48.4825C153.569 53.9126 154.913 58.2892 158.881 62.4763C162.479 66.2729 162.651 66.3357 169.395 66.3357C175.665 66.3357 176.538 66.0834 179.597 63.3877C192.748 51.7978 179.329 30.7115 163.271 37.7325Z" fill="url(#paint0_linear_116_1530)"/>
<defs>
<linearGradient id="paint0_linear_116_1530" x1="232.042" y1="67.0296" x2="-14.6362" y2="-22.5945" gradientUnits="userSpaceOnUse">
<stop stop-color="#5DB4FB"/>
<stop offset="1" stop-color="#003082"/>
</linearGradient>
</defs>
</svg>
