<svg width="194" height="75" viewBox="0 0 194 75" fill="none" xmlns="http://www.w3.org/2000/svg">
<path fill-rule="evenodd" clip-rule="evenodd" d="M84.933 0.975035C79.899 1.35798 74.5735 2.30341 73.0991 3.07504C71.6248 3.84666 66.6597 8.2367 62.0646 12.8311L53.7101 21.1843L38.0432 23.0141C19.3415 25.1981 8.05554 27.4566 5.52757 29.5232C4.50357 30.3598 3.44228 32.7453 3.15449 34.8568C2.86861 36.9577 1.96126 40.2763 1.13804 42.2311C0.0566754 44.8 -0.214859 47.5637 0.158026 52.2011C0.760379 59.6968 2.03966 61.1187 8.18462 61.1187C12.752 61.1187 13.6163 60.1609 14.5571 54.0614C15.3622 48.8348 19.1952 43.5184 24.3181 40.5188C29.5653 37.4486 38.6885 36.9042 43.4318 39.3796C49.5911 42.594 55.3479 50.6359 55.3775 56.0669C55.4072 61.3575 53.5437 61.1579 100.291 60.8895L143.66 60.6412L144.759 55.7641C146.246 49.1681 148.867 44.97 153.549 41.6839C161.413 36.1632 172.057 36.6139 178.864 42.7564C183.546 46.9812 184.552 48.7871 185.9 55.3888C186.742 59.5191 187.39 60.7033 188.933 60.9306C192.727 61.4912 194 58.779 194 50.1326C194 43.1431 193.775 42.0764 192.194 41.5751C190.824 41.1405 190.224 39.6947 189.71 35.5797C188.818 28.4498 184.446 15.2329 180.182 6.77654L176.766 0L135.425 0.138473C112.689 0.214871 89.9669 0.591133 84.933 0.975035ZM105.54 4.74434C106.231 5.86167 103.509 22.0304 102.469 22.9873C102.066 23.3588 94.8737 23.8182 86.4867 24.0072L71.2395 24.352L70.6697 21.9731C70.3035 20.4394 69.0968 19.2658 67.2735 18.6689C65.7189 18.1599 64.2809 17.6327 64.0782 17.4962C63.2359 16.9318 67.0498 12.3679 71.206 8.96631C75.63 5.34598 75.739 5.31542 86.3079 4.72429C103.406 3.76931 104.938 3.77122 105.54 4.74434ZM140.757 9.5498C141.71 12.4386 142.571 16.736 142.669 19.0996L142.848 23.397L125.877 23.6577L108.906 23.9184L108.911 20.3153C108.92 14.4345 110.681 5.45198 111.99 4.60682C112.66 4.17326 119.017 3.92688 126.116 4.05867L139.023 4.29741L140.757 9.5498ZM175.59 5.01365C177.775 7.76972 182.779 22.0944 181.873 22.9997C181.331 23.5412 175.752 23.821 168.585 23.6654L156.233 23.397L152.102 14.9531C149.829 10.3081 148.202 5.90369 148.486 5.16453C149.19 3.33193 174.147 3.19345 175.59 5.01365ZM28.0384 43.8298C16.2839 49.1624 15.2341 65.0303 26.151 72.376C29.0021 74.2955 31.6506 74.795 37.8806 74.5897C41.3484 74.4751 46.9637 70.1146 49.1972 65.7991C52.9442 58.5632 49.5022 48.1577 42.0665 44.2394C37.0048 41.5731 33.2559 41.4633 28.0384 43.8298ZM159.063 43.762C148.034 48.915 145.97 62.0002 154.833 70.5902C162.652 78.1689 175.209 75.6526 180.012 65.5441C186.395 52.1066 172.382 37.5364 159.063 43.762Z" fill="url(#paint0_linear_116_1540)"/>
<defs>
<linearGradient id="paint0_linear_116_1540" x1="214.362" y1="75.0332" x2="-22.3236" y2="4.06507" gradientUnits="userSpaceOnUse">
<stop stop-color="#5DB4FB"/>
<stop offset="1" stop-color="#003082"/>
</linearGradient>
</defs>
</svg>
