<svg width="630" height="226" viewBox="0 0 630 226" fill="none" xmlns="http://www.w3.org/2000/svg">
<path d="M81.2589 33.985L104.487 56.0752H86.9891L63.6587 33.985H12.2792V56.0752H0V0H87.0914C91.8667 0 95.9597 1.66593 99.3706 4.99779C102.781 8.32965 104.487 12.3279 104.487 16.9925C104.487 21.6571 102.781 25.6553 99.3706 28.9872C95.9597 32.319 91.8667 33.985 87.0914 33.985H81.2589ZM12.2792 22.0902H87.0914C88.524 22.0902 89.7519 21.5904 90.7752 20.5909C91.7985 19.5913 92.3101 18.3919 92.3101 16.9925C92.3101 15.5931 91.7985 14.3936 90.7752 13.3941C89.7519 12.3945 88.524 11.8947 87.0914 11.8947H12.2792V22.0902Z" fill="url(#paint0_linear_14_3)"/>
<path d="M121.799 11.8947V22.0902H174.485V33.985H121.799V44.0805H174.485V56.0752H109.622V0H174.485V11.8947H121.799Z" fill="url(#paint1_linear_14_3)"/>
<path d="M252.234 0V56.0752H234.736L193.192 16.5927V56.0752H181.015V0H193.192V0.0999545L240.057 44.4803V0H252.234Z" fill="url(#paint2_linear_14_3)"/>
<path d="M329.876 0V11.8947H299.996V56.0752H287.717V11.8947H258.554V0H329.876Z" fill="url(#paint3_linear_14_3)"/>
<path d="M41.2375 84.9624L71.6284 140.938H57.9167L49.1166 124.945H22.9211L14.2234 140.938H0.409305L30.8002 84.9624H41.2375ZM29.3676 112.95H42.6701L36.0188 100.755L29.3676 112.95Z" fill="url(#paint4_linear_14_3)"/>
<path d="M168.549 115.949H180.828C180.078 123.012 176.974 128.976 171.516 133.841C166.127 138.639 159.749 141.038 152.381 141.038H138.67C130.688 141.038 123.901 138.305 118.307 132.841C112.713 127.31 109.916 120.68 109.916 112.95C109.916 105.22 112.713 98.623 118.307 93.1588C123.901 87.6945 130.688 84.9624 138.67 84.9624H152.381C159.749 84.9624 166.127 87.3947 171.516 92.2592C176.974 97.0571 180.078 102.988 180.828 110.051H168.549C168.071 107.586 167.082 105.353 165.581 103.354C164.012 101.355 162.068 99.7892 159.749 98.6563C157.498 97.4569 155.042 96.8571 152.381 96.8571H138.67C136.009 96.8571 133.519 97.4569 131.2 98.6563C128.88 99.7892 126.97 101.355 125.47 103.354C123.287 106.22 122.195 109.452 122.195 113.05C122.195 116.582 123.287 119.78 125.47 122.646C126.97 124.645 128.88 126.211 131.2 127.344C133.519 128.476 136.009 129.043 138.67 129.043H152.381C155.042 129.043 157.498 128.476 159.749 127.344C162.068 126.211 163.978 124.645 165.479 122.646C167.048 120.647 168.071 118.414 168.549 115.949Z" fill="url(#paint5_linear_14_3)"/>
<path d="M227.503 84.9624L257.894 140.938H244.182L235.382 124.945H209.187L200.489 140.938H186.675L217.066 84.9624H227.503ZM215.633 112.95H228.936L222.285 100.755L215.633 112.95Z" fill="url(#paint6_linear_14_3)"/>
<path d="M350.652 118.847L373.88 140.938H356.382L333.052 118.847L274.79 118.947V141.038H262.511V84.9624L356.485 84.8624C361.26 84.8624 365.353 86.5284 368.764 89.8602C372.175 93.1921 373.88 97.1903 373.88 101.855C373.88 106.52 372.175 110.518 368.764 113.85C365.353 117.181 361.26 118.847 356.485 118.847H350.652ZM274.79 107.053L356.485 106.953C357.917 106.953 359.145 106.453 360.168 105.453C361.192 104.454 361.703 103.254 361.703 101.855C361.703 100.456 361.192 99.2561 360.168 98.2565C359.145 97.257 357.917 96.7572 356.485 96.7572L274.79 96.8571V107.053Z" fill="url(#paint7_linear_14_3)"/>
<path d="M454.231 96.7572V128.943H484.11V140.938H412.891V128.943H442.054V96.7572H412.891V84.8624H484.11V96.7572H454.231Z" fill="url(#paint8_linear_14_3)"/>
<path d="M568.422 84.8624V140.938H550.924L502.217 101.455V140.938H490.04V84.8624H502.217V84.9624L556.245 129.343V84.8624H568.422Z" fill="url(#paint9_linear_14_3)"/>
<path d="M109.091 169.925V226H96.9145V186.817L60.077 204.809H50.0491L13.0978 186.817V226H0.920936V169.925H13.0978L55.0631 192.915L96.9145 169.925H109.091Z" fill="url(#paint10_linear_14_3)"/>
<path d="M156.147 181.82V214.005H186.026V226H114.807V214.005H143.97V181.82H114.807V169.925H186.026V181.82H156.147Z" fill="url(#paint11_linear_14_3)"/>
<path d="M274.684 169.925V226H257.186L204.133 186.517V226H191.956V169.925H204.133V170.025L262.507 214.405V169.925H274.684Z" fill="url(#paint12_linear_14_3)"/>
<path d="M352.224 169.925V209.008C352.224 210.74 351.951 212.406 351.405 214.005C350.586 216.671 349.154 219.003 347.107 221.002C345.061 222.935 342.707 224.334 340.047 225.2C338.341 225.733 336.602 226 334.828 226H298.298C296.524 226 294.819 225.733 293.181 225.2C290.453 224.334 288.065 222.935 286.019 221.002C284.04 219.003 282.608 216.671 281.721 214.005C281.175 212.406 280.902 210.74 280.902 209.008V169.925H293.181V209.008C293.181 210.407 293.659 211.606 294.614 212.606C295.637 213.539 296.865 214.005 298.298 214.005H334.828C336.261 214.005 337.489 213.539 338.512 212.606C339.535 211.606 340.047 210.407 340.047 209.008V169.925H352.224Z" fill="url(#paint13_linear_14_3)"/>
<path d="M429.77 169.925V181.82H399.891V226H387.612V181.82H358.449V169.925H429.77Z" fill="url(#paint14_linear_14_3)"/>
<path d="M447.77 181.82V192.015H552.661V203.91H447.77V214.005H552.661V226H435.593V169.925H552.661V181.82H447.77Z" fill="url(#paint15_linear_14_3)"/>
<path d="M630 209.008C630 209.207 630 209.507 630 209.907C629.932 211.24 629.659 212.606 629.181 214.005C629.181 214.005 629.181 214.039 629.181 214.105C628.09 217.57 626.009 220.436 622.939 222.701C619.87 224.9 616.425 226 612.605 226H576.279C576.074 226 575.767 225.967 575.358 225.9C571.674 225.7 568.4 224.534 565.534 222.402C562.738 220.203 560.793 217.437 559.702 214.105V214.005C559.224 212.673 558.951 211.306 558.883 209.907H571.162C571.367 211.107 571.947 212.106 572.902 212.906C573.857 213.639 574.983 214.005 576.279 214.005H612.605C613.832 214.005 614.924 213.639 615.879 212.906C616.902 212.106 617.516 211.107 617.721 209.907C617.789 209.641 617.823 209.341 617.823 209.008C617.823 207.608 617.346 206.442 616.391 205.509C615.436 204.51 614.242 203.976 612.809 203.91H575.972C570.787 203.843 566.489 201.844 563.079 197.912C561.51 196.18 560.384 194.214 559.702 192.015C559.156 190.349 558.883 188.65 558.883 186.917C558.883 186.717 558.883 186.418 558.883 186.018C558.951 184.618 559.224 183.219 559.702 181.82C560.793 178.354 562.84 175.522 565.841 173.323C568.911 171.058 572.39 169.925 576.279 169.925H612.605C616.425 169.925 619.87 171.058 622.939 173.323C626.009 175.522 628.09 178.354 629.181 181.82C629.659 183.219 629.932 184.618 630 186.018H617.721C617.516 184.818 616.902 183.819 615.879 183.019C614.924 182.219 613.832 181.82 612.605 181.82H576.279C574.983 181.82 573.857 182.219 572.902 183.019C571.947 183.819 571.367 184.818 571.162 186.018C571.094 186.284 571.06 186.584 571.06 186.917C571.06 188.25 571.538 189.416 572.493 190.416C573.448 191.415 574.607 191.948 575.972 192.015H612.809C612.946 192.015 613.014 192.015 613.014 192.015C618.198 192.148 622.462 194.114 625.805 197.912C627.374 199.712 628.499 201.711 629.181 203.91C629.727 205.576 630 207.275 630 209.008Z" fill="url(#paint16_linear_14_3)"/>
<defs>
<linearGradient id="paint0_linear_14_3" x1="696.125" y1="226.1" x2="-62.3953" y2="-19.0036" gradientUnits="userSpaceOnUse">
<stop stop-color="#5DB4FB"/>
<stop offset="1" stop-color="#003082"/>
</linearGradient>
<linearGradient id="paint1_linear_14_3" x1="696.125" y1="226.1" x2="-62.3953" y2="-19.0036" gradientUnits="userSpaceOnUse">
<stop stop-color="#5DB4FB"/>
<stop offset="1" stop-color="#003082"/>
</linearGradient>
<linearGradient id="paint2_linear_14_3" x1="696.125" y1="226.1" x2="-62.3953" y2="-19.0036" gradientUnits="userSpaceOnUse">
<stop stop-color="#5DB4FB"/>
<stop offset="1" stop-color="#003082"/>
</linearGradient>
<linearGradient id="paint3_linear_14_3" x1="696.125" y1="226.1" x2="-62.3953" y2="-19.0036" gradientUnits="userSpaceOnUse">
<stop stop-color="#5DB4FB"/>
<stop offset="1" stop-color="#003082"/>
</linearGradient>
<linearGradient id="paint4_linear_14_3" x1="696.125" y1="226.1" x2="-62.3953" y2="-19.0036" gradientUnits="userSpaceOnUse">
<stop stop-color="#5DB4FB"/>
<stop offset="1" stop-color="#003082"/>
</linearGradient>
<linearGradient id="paint5_linear_14_3" x1="696.125" y1="226.1" x2="-62.3953" y2="-19.0036" gradientUnits="userSpaceOnUse">
<stop stop-color="#5DB4FB"/>
<stop offset="1" stop-color="#003082"/>
</linearGradient>
<linearGradient id="paint6_linear_14_3" x1="696.125" y1="226.1" x2="-62.3953" y2="-19.0036" gradientUnits="userSpaceOnUse">
<stop stop-color="#5DB4FB"/>
<stop offset="1" stop-color="#003082"/>
</linearGradient>
<linearGradient id="paint7_linear_14_3" x1="696.125" y1="226.1" x2="-62.3953" y2="-19.0036" gradientUnits="userSpaceOnUse">
<stop stop-color="#5DB4FB"/>
<stop offset="1" stop-color="#003082"/>
</linearGradient>
<linearGradient id="paint8_linear_14_3" x1="696.125" y1="226.1" x2="-62.3953" y2="-19.0036" gradientUnits="userSpaceOnUse">
<stop stop-color="#5DB4FB"/>
<stop offset="1" stop-color="#003082"/>
</linearGradient>
<linearGradient id="paint9_linear_14_3" x1="696.125" y1="226.1" x2="-62.3953" y2="-19.0036" gradientUnits="userSpaceOnUse">
<stop stop-color="#5DB4FB"/>
<stop offset="1" stop-color="#003082"/>
</linearGradient>
<linearGradient id="paint10_linear_14_3" x1="696.125" y1="226.1" x2="-62.3953" y2="-19.0036" gradientUnits="userSpaceOnUse">
<stop stop-color="#5DB4FB"/>
<stop offset="1" stop-color="#003082"/>
</linearGradient>
<linearGradient id="paint11_linear_14_3" x1="696.125" y1="226.1" x2="-62.3953" y2="-19.0036" gradientUnits="userSpaceOnUse">
<stop stop-color="#5DB4FB"/>
<stop offset="1" stop-color="#003082"/>
</linearGradient>
<linearGradient id="paint12_linear_14_3" x1="696.125" y1="226.1" x2="-62.3953" y2="-19.0036" gradientUnits="userSpaceOnUse">
<stop stop-color="#5DB4FB"/>
<stop offset="1" stop-color="#003082"/>
</linearGradient>
<linearGradient id="paint13_linear_14_3" x1="696.125" y1="226.1" x2="-62.3953" y2="-19.0036" gradientUnits="userSpaceOnUse">
<stop stop-color="#5DB4FB"/>
<stop offset="1" stop-color="#003082"/>
</linearGradient>
<linearGradient id="paint14_linear_14_3" x1="696.125" y1="226.1" x2="-62.3953" y2="-19.0036" gradientUnits="userSpaceOnUse">
<stop stop-color="#5DB4FB"/>
<stop offset="1" stop-color="#003082"/>
</linearGradient>
<linearGradient id="paint15_linear_14_3" x1="696.125" y1="226.1" x2="-62.3953" y2="-19.0036" gradientUnits="userSpaceOnUse">
<stop stop-color="#5DB4FB"/>
<stop offset="1" stop-color="#003082"/>
</linearGradient>
<linearGradient id="paint16_linear_14_3" x1="696.125" y1="226.1" x2="-62.3953" y2="-19.0036" gradientUnits="userSpaceOnUse">
<stop stop-color="#5DB4FB"/>
<stop offset="1" stop-color="#003082"/>
</linearGradient>
</defs>
</svg>
