<svg width="100" height="13" viewBox="0 0 100 13" fill="none" xmlns="http://www.w3.org/2000/svg">
<path d="M14.7794 6.48841C14.7794 6.95187 14.7368 7.41533 14.6516 7.87879C14.4244 9.00654 13.9559 9.99525 13.246 10.8449C12.9479 11.2157 12.6143 11.5401 12.2451 11.8182C11.2229 12.5906 10.0801 12.9768 8.8165 12.9768H5.96285C4.96904 12.9768 4.03912 12.7296 3.17309 12.2353C2.32125 11.7409 1.62559 11.0689 1.08609 10.2193C0.36203 9.10695 0 7.86334 0 6.48841C0 4.69637 0.582088 3.16696 1.74626 1.90018C2.91044 0.633393 4.31597 0 5.96285 0H8.8165C10.0801 0 11.2229 0.393939 12.2451 1.18182C13.1112 1.84611 13.7713 2.69578 14.2257 3.73084H11.1165C10.4634 3.082 9.69673 2.75758 8.8165 2.75758V2.78075H5.96285V2.75758C5.40916 2.75758 4.89096 2.89661 4.40825 3.17469C3.93974 3.43731 3.54222 3.80036 3.21568 4.26381C2.76137 4.9281 2.53421 5.67736 2.53421 6.51159C2.53421 7.33036 2.76137 8.07189 3.21568 8.73618C3.54222 9.19964 3.93974 9.56269 4.40825 9.82531C4.89096 10.0879 5.40916 10.2193 5.96285 10.2193H8.8165C9.3702 10.2193 9.8813 10.0879 10.3498 9.82531C10.8325 9.56269 11.2371 9.19964 11.5637 8.73618C11.7482 8.47356 11.8973 8.18776 12.0109 7.87879H5.79248V5.12121H14.6516C14.7368 5.56922 14.7794 6.02495 14.7794 6.48841Z" fill="#00286B"/>
<path d="M24.4497 0L30.7746 12.9768H27.9209L26.0895 9.26916H20.6377L18.8276 12.9768H15.9526L22.2775 0H24.4497ZM21.9794 6.48841H24.7478L23.3636 3.66132L21.9794 6.48841Z" fill="#00286B"/>
<path d="M49.3863 7.87879L54.2205 13H50.5789L45.7234 7.87879H34.2909V13H31.7354V0H50.6002C51.594 0 52.4458 0.386215 53.1557 1.15865C53.8655 1.93108 54.2205 2.85799 54.2205 3.93939C54.2205 5.0208 53.8655 5.94771 53.1557 6.72014C52.4458 7.49257 51.594 7.87879 50.6002 7.87879H49.3863ZM34.2909 5.12121H50.6002C50.8983 5.12121 51.1539 5.00535 51.3668 4.77362C51.5798 4.54189 51.6863 4.26381 51.6863 3.93939C51.6863 3.61497 51.5798 3.3369 51.3668 3.10517C51.1539 2.87344 50.8983 2.75758 50.6002 2.75758H34.2909V5.12121Z" fill="#00286B"/>
<path d="M63.765 0L70.0899 12.9768H67.2363L65.4048 9.26916H59.9531L58.1429 12.9768H55.268L61.5928 0H63.765ZM61.2947 6.48841H64.0632L62.6789 3.66132L61.2947 6.48841Z" fill="#00286B"/>
<path d="M85.8514 6.48841C85.8514 6.95187 85.8088 7.41533 85.7236 7.87879C85.4964 9.00654 85.0279 9.99525 84.3181 10.8449C84.0199 11.2157 83.6863 11.5401 83.3172 11.8182C82.295 12.5906 81.1521 12.9768 79.8885 12.9768H77.0349C76.0411 12.9768 75.1111 12.7296 74.2451 12.2353C73.3933 11.7409 72.6976 11.0689 72.1581 10.2193C71.4341 9.10695 71.072 7.86334 71.072 6.48841C71.072 4.69637 71.6541 3.16696 72.8183 1.90018C73.9825 0.633393 75.388 0 77.0349 0H79.8885C81.1521 0 82.295 0.393939 83.3172 1.18182C84.1832 1.84611 84.8434 2.69578 85.2977 3.73084H82.1885C81.5354 3.082 80.7688 2.75758 79.8885 2.75758V2.78075H77.0349V2.75758C76.4812 2.75758 75.963 2.89661 75.4803 3.17469C75.0118 3.43731 74.6142 3.80036 74.2877 4.26381C73.8334 4.9281 73.6062 5.67736 73.6062 6.51159C73.6062 7.33036 73.8334 8.07189 74.2877 8.73618C74.6142 9.19964 75.0118 9.56269 75.4803 9.82531C75.963 10.0879 76.4812 10.2193 77.0349 10.2193H79.8885C80.4422 10.2193 80.9533 10.0879 81.4218 9.82531C81.9045 9.56269 82.3092 9.19964 82.6357 8.73618C82.8203 8.47356 82.9693 8.18776 83.0829 7.87879H76.8645V5.12121H85.7236C85.8088 5.56922 85.8514 6.02495 85.8514 6.48841Z" fill="#00286B"/>
<path d="M89.5801 2.75758V5.12121H100V7.87879H89.5801V10.2193H100V13H87.0459V0L100 0V2.75758H89.5801Z" fill="#00286B"/>
</svg>
